<svg width="154" height="41" viewBox="0 0 154 41" fill="none" xmlns="http://www.w3.org/2000/svg">
<path d="M6.93046 16.0385L7.59705 15.8275C7.69057 15.8209 7.74387 15.9112 7.75695 16.0982C7.76894 16.2697 7.51633 16.5771 6.99913 17.0205C6.49751 17.4628 5.86482 17.7107 5.10106 17.7641C4.35289 17.8164 3.74533 17.6396 3.27837 17.2337C2.82701 16.8267 2.5768 16.2725 2.52775 15.5711C2.42421 14.0903 3.28814 12.5576 5.11956 10.9728C6.94989 9.37251 9.24515 8.03727 12.0053 6.96712C14.7645 5.88139 17.4377 5.24805 20.0252 5.06712C23.8128 4.80227 26.6693 5.22122 28.5946 6.32397C30.5356 7.42563 31.5786 9.013 31.7235 11.0861C31.9088 13.7358 30.2488 16.4285 26.7436 19.1641C24.9024 20.6085 22.8868 21.7989 20.6968 22.7352C23.178 22.828 25.1976 23.4856 26.7554 24.708C27.9318 25.6282 28.574 26.8598 28.6819 28.4029C28.7898 29.946 28.1595 31.5721 26.791 33.2811C25.437 34.9734 23.5735 36.4351 21.2004 37.6661C18.8263 38.8816 16.3611 39.5787 13.8049 39.7574C10.8589 39.9634 8.64713 39.4681 7.16943 38.2713C6.50453 37.7226 6.15628 37.2223 6.12467 36.7702C6.09197 36.3026 6.17454 35.8035 6.37238 35.2728C5.3784 37.4098 4.65295 39.019 4.19602 40.1004C3.99492 40.5844 3.53586 40.8514 2.81886 40.9015C2.11745 40.9506 1.55883 40.8017 1.143 40.4549C0.727165 40.108 0.5029 39.7008 0.470202 39.2332C0.437503 38.7656 0.478761 38.3476 0.593975 37.9793C1.16677 36.091 3.33648 31.6163 7.10309 24.5551C10.8842 17.4772 13.2126 13.3673 14.0881 12.2253C14.5444 11.5825 15.6532 11.1995 17.4145 11.0764C18.116 11.0273 18.4776 11.1587 18.4994 11.4704C18.5157 11.7042 17.6018 13.5302 15.7576 16.9484C13.9134 20.3667 12.9501 22.157 12.8674 22.3194C14.9904 21.5444 17.1444 20.5401 19.3293 19.3066C21.5287 18.0564 23.4221 16.6866 25.0096 15.1972C26.6126 13.7068 27.3755 12.4082 27.2981 11.3015C27.1706 9.47787 25.1273 8.70445 21.1682 8.9813C17.022 9.27123 13.1086 10.6491 9.42792 13.115C8.51527 13.727 7.82535 14.2765 7.35818 14.7634C6.89101 15.2503 6.66396 15.5873 6.67704 15.7743C6.69012 15.9614 6.77459 16.0494 6.93046 16.0385ZM11.9204 26.9201C11.6399 26.9397 11.3052 26.6342 10.9165 26.0035C9.60146 28.4763 8.23476 31.2189 6.81644 34.2314C7.47818 33.1671 8.51047 32.5858 9.91329 32.4877C10.8485 32.4223 11.3243 32.5065 11.3406 32.7403C11.3472 32.8339 11.2519 32.9267 11.0547 33.0188C10.4475 33.2962 10.1603 33.6687 10.193 34.1363C10.2715 35.2585 11.5031 35.7363 13.8879 35.5695C17.1144 35.3439 19.9585 34.0173 22.4202 31.5897C23.7402 30.307 24.3691 29.2214 24.307 28.3329C24.2688 27.7874 23.6579 27.2271 22.4743 26.652C21.0982 26.012 19.0541 25.7869 16.3419 25.9765C14.4559 26.1084 13.2556 26.302 12.7409 26.5573C12.2251 26.797 11.9516 26.9179 11.9204 26.9201ZM44.2297 19.5859C44.6973 19.5532 45.1874 19.7304 45.7001 20.1175C46.2283 20.5035 46.5229 21.1329 46.5839 22.0057C46.6439 22.863 46.4184 24.0065 45.9075 25.4363C45.3955 26.8504 44.6597 28.3116 43.7001 29.8197C42.7394 31.3122 41.6641 32.7344 40.4743 34.0864C39.2989 35.4216 37.9992 36.5463 36.5751 37.4603C35.1655 38.3577 33.8606 38.8484 32.6604 38.9323C31.4602 39.0162 30.4677 38.7097 29.6828 38.0128C28.9124 37.2991 28.4803 36.2721 28.3866 34.9316C28.2918 33.5755 28.5144 32.0563 29.0547 30.3739C29.6104 28.6904 30.3669 27.1887 31.324 25.8687C32.2801 24.5331 33.3311 23.324 34.4771 22.2415C36.875 20.0219 39.0326 18.8451 40.9498 18.711C41.807 18.6511 42.4686 18.8163 42.9345 19.2066C43.1002 19.336 43.1868 19.4552 43.1944 19.5644L43.2042 19.7046C43.4203 19.6582 43.7621 19.6186 44.2297 19.5859ZM42.0857 22.8607L41.9221 22.8721C41.3765 22.9103 41.076 22.5319 41.0204 21.7369C39.9087 22.1906 38.7621 22.9286 37.5805 23.951C36.399 24.9734 35.3619 26.158 34.4693 27.5048C32.6529 30.2006 31.7907 32.4302 31.8827 34.1937C31.9437 35.0666 32.2938 35.4807 32.9328 35.436C33.5719 35.3913 34.4933 34.904 35.697 33.974C36.9006 33.044 38.0637 31.7566 39.1861 30.1118C40.324 28.466 41.1572 27.0528 41.6855 25.8725C42.2283 24.6755 42.4855 23.8743 42.4572 23.469C42.4278 23.0482 42.304 22.8454 42.0857 22.8607ZM61.765 18.3598C62.2326 18.3271 62.7227 18.5042 63.2354 18.8913C63.7636 19.2773 64.0582 19.9067 64.1192 20.7796C64.1792 21.6368 63.9537 22.7803 63.4428 24.2101C62.9309 25.6242 62.195 27.0854 61.2354 28.5935C60.2747 30.086 59.1994 31.5083 58.0096 32.8602C56.8342 34.1954 55.5345 35.3201 54.1104 36.2341C52.7008 37.1315 51.3959 37.6222 50.1957 37.7061C48.9956 37.79 48.003 37.4835 47.2181 36.7866C46.4477 36.0729 46.0156 35.0459 45.9219 33.7054C45.8271 32.3494 46.0498 30.8301 46.59 29.1477C47.1458 27.4642 47.9022 25.9625 48.8593 24.6425C49.8154 23.3069 50.8664 22.0979 52.0124 21.0153C54.4103 18.7957 56.5679 17.6189 58.4851 17.4849C59.3423 17.4249 60.0039 17.5901 60.4698 17.9804C60.6355 18.1098 60.7221 18.2291 60.7297 18.3382L60.7396 18.4784C60.9556 18.432 61.2974 18.3925 61.765 18.3598ZM59.621 21.6345L59.4574 21.6459C58.9118 21.6841 58.6113 21.3057 58.5557 20.5107C57.444 20.9644 56.2974 21.7024 55.1158 22.7248C53.9343 23.7472 52.8972 24.9319 52.0046 26.2786C50.1882 28.9744 49.326 31.2041 49.418 32.9676C49.479 33.8404 49.8291 34.2545 50.4681 34.2098C51.1072 34.1651 52.0286 33.6778 53.2323 32.7478C54.436 31.8178 55.599 30.5305 56.7214 28.8857C57.8593 27.2398 58.6925 25.8266 59.2208 24.6463C59.7636 23.4493 60.0208 22.6481 59.9925 22.2429C59.9631 21.822 59.8393 21.6192 59.621 21.6345ZM65.0842 36.5945L63.5649 36.3718C63.1096 36.3567 62.7154 36.0945 62.3822 35.5852C62.2944 35.4504 62.2417 35.3679 62.2239 35.3379C62.1906 35.3089 62.1722 35.271 62.169 35.2242C62.1657 35.1775 62.1769 35.114 62.2027 35.0339C62.2273 34.9382 62.2659 34.818 62.3184 34.6734C62.3699 34.5132 62.4135 34.3535 62.4494 34.1943C62.6993 33.0648 65.0708 27.6675 69.5638 18.0024C74.0568 8.33728 76.4104 3.35628 76.6245 3.05937C76.8532 2.74578 77.0178 2.52282 77.1181 2.3905C77.233 2.24149 77.3573 2.11533 77.4911 2.012C77.6404 1.90758 77.7452 1.8376 77.8053 1.80206C77.8811 1.76544 78.0181 1.70887 78.2164 1.63235C78.4291 1.53916 78.6419 1.44597 78.8547 1.35277C79.083 1.25849 79.3175 1.14028 79.5582 0.998144C79.7978 0.840423 79.9627 0.734912 80.053 0.681611C80.1421 0.612724 80.2569 0.573376 80.3971 0.563566C80.553 0.552667 80.6982 0.612998 80.8327 0.744561C80.9828 0.875034 81.0655 1.04938 81.0807 1.2676L81.0922 1.43126C81.0349 1.73286 79.2592 5.5692 75.7648 12.9403C72.2861 20.3103 70.3909 24.3429 70.0793 25.0382C71.2613 24.47 72.9704 23.1523 75.2066 21.085C77.4429 19.0177 78.547 17.6718 78.519 17.0472C78.5065 16.4216 78.6931 15.9543 79.0788 15.6454C79.4644 15.3365 79.8911 15.1657 80.3587 15.133C80.8419 15.0992 81.2586 15.2345 81.6088 15.539C81.9735 15.8267 82.1737 16.3374 82.2093 17.0711C82.2439 17.7892 81.9029 18.7372 81.1864 19.915C80.4689 21.0773 79.59 22.1725 78.5498 23.2007C76.3067 25.3938 74.4131 26.8732 72.869 27.639C74.3703 30.9643 75.9392 32.5697 77.5758 32.4552C78.4556 32.2684 79.496 31.4673 80.6971 30.052C81.1465 29.535 81.5803 29.0191 81.9985 28.5043C82.4157 27.9739 82.6677 27.6587 82.7547 27.5586C82.8573 27.4575 83.0021 27.4004 83.1891 27.3873C83.4853 27.3666 83.6803 27.58 83.7743 28.0277C83.8682 28.4754 83.9321 28.9408 83.9659 29.424C83.9997 29.9072 83.9764 30.2456 83.8959 30.4392C83.5049 31.3436 82.5898 32.4805 81.1506 33.8499C79.7103 35.2037 78.3043 35.9285 76.9326 36.0244C75.9507 36.0931 75.1582 35.9606 74.5554 35.6268C73.9525 35.293 73.4787 35.0129 73.1339 34.7864C72.7891 34.5599 72.4306 34.2482 72.0582 33.8513C71.6848 33.4389 71.3714 33.1006 71.118 32.8363C70.8801 32.571 70.5957 32.1993 70.2647 31.7213C69.9492 31.2421 69.7221 30.9056 69.5832 30.7117C69.4432 30.5022 69.2322 30.1723 68.9501 29.7222C68.6825 29.2553 68.5315 28.9996 68.4971 28.955C68.2568 29.5514 67.9887 30.1966 67.6926 30.8909C67.3966 31.5851 67.1285 32.2303 66.8882 32.8267C66.648 33.423 66.4279 33.971 66.2278 34.4705C66.0267 34.9545 65.8592 35.3578 65.7251 35.6804C65.6066 36.0019 65.5401 36.1711 65.5256 36.1877C65.4339 36.4448 65.2868 36.5803 65.0842 36.5945ZM98.8964 15.8103C100.081 15.7274 100.702 16.0913 100.758 16.9018C100.789 17.3382 100.71 17.6648 100.521 17.8816C100.333 18.0984 99.9439 18.807 99.3543 20.0073C98.7792 21.1909 98.1491 22.7073 97.4639 24.5565C96.7933 26.389 96.3852 27.9447 96.2396 29.2236C96.2038 29.3827 96.1957 29.6026 96.2153 29.8831C96.2752 30.7404 96.539 31.1527 97.0066 31.12C97.4742 31.0873 98.0123 30.8304 98.6208 30.3493C99.2283 29.8526 99.764 29.3374 100.228 28.8037C100.691 28.2545 101.137 27.6985 101.568 27.1359C102.014 26.5721 102.281 26.248 102.369 26.1635C102.457 26.0791 102.595 26.0303 102.782 26.0172C103.078 25.9965 103.273 26.21 103.367 26.6576C103.461 27.1053 103.525 27.5707 103.559 28.0539C103.592 28.5371 103.569 28.8755 103.489 29.0691C103.099 29.9892 102.176 31.1266 100.72 32.4815C99.2797 33.8352 97.9282 34.5563 96.6657 34.6446C95.4187 34.7318 94.4724 34.4142 93.8267 33.6918C93.181 32.9695 92.826 32.1485 92.7617 31.2289C92.6963 30.2937 92.7949 29.4645 93.0576 28.7412C91.8816 30.5151 90.4928 32.0454 88.8911 33.3321C87.3051 34.6178 85.9821 35.2977 84.9222 35.3718C83.8623 35.4459 82.9749 35.1868 82.2599 34.5946C81.3471 33.8597 80.8416 32.7908 80.7435 31.3879C80.6443 29.9695 80.8569 28.5293 81.3811 27.0673C81.9199 25.5886 82.6628 24.2288 83.6098 22.9878C84.5557 21.7313 85.6106 20.5768 86.7744 19.5243C89.2201 17.317 91.5341 16.1371 93.7162 15.9845C94.5579 15.9257 95.2536 16.018 95.8031 16.2615C96.3527 16.505 96.7124 16.8323 96.8821 17.2433C97.2169 16.656 97.5041 16.2835 97.7437 16.1258C97.9978 15.9514 98.382 15.8462 98.8964 15.8103ZM95.9683 18.6229C93.3029 18.8093 90.6475 20.483 88.0022 23.644C87.0632 24.7747 86.2168 26.1105 85.4631 27.6512C84.7249 29.1908 84.3749 30.2334 84.4131 30.7789C84.4512 31.3245 84.6262 31.5863 84.9379 31.5645C85.3743 31.534 86.5302 30.5917 88.4054 28.7376C90.2795 26.868 91.5156 25.505 92.1136 24.6487C92.7674 23.6945 94.0523 21.6859 95.9683 18.6229ZM108.553 20.1864C111.94 15.7518 114.927 13.4441 117.514 13.2632C118.153 13.2185 118.689 13.3768 119.121 13.7381C119.568 14.0828 119.813 14.5591 119.856 15.167C119.898 15.7749 119.533 16.8263 118.761 18.3214C118.002 19.7997 117.291 21.0555 116.628 22.0887C116.273 22.6147 115.846 22.8952 115.347 22.9301C114.864 22.9638 114.47 22.8113 114.164 22.4724C113.874 22.1325 113.712 21.7209 113.678 21.2377C113.603 20.1622 114.095 18.9061 115.153 17.4693L115.103 17.4259C114.592 17.5086 113.385 18.6111 111.481 20.7334C109.594 22.8547 107.988 24.7526 106.664 26.4271C105.354 28.085 103.944 30.0945 102.433 32.4557C101.997 33.1597 101.607 33.5237 101.264 33.5477C100.937 33.5705 100.494 33.4998 99.9339 33.3353C99.3575 33.1563 99.0115 33.0239 98.8958 32.938C98.7646 32.8532 98.6913 32.7017 98.6761 32.4834C98.6608 32.2652 98.7057 32.0115 98.8108 31.7222C98.9148 31.4173 99.1197 30.9879 99.4256 30.434C99.7158 29.8811 100.155 28.989 100.742 27.7575C101.345 26.5249 102.28 24.6583 103.546 22.1577C104.812 19.657 105.568 18.1475 105.814 17.6291C106.334 16.5589 106.765 15.7769 107.106 15.2832C107.745 14.3457 108.899 13.8186 110.567 13.702C110.941 13.6758 111.144 13.8965 111.177 14.3642C111.228 15.0967 110.647 16.5236 109.432 18.6447L108.553 20.1864ZM133.169 13.3667C133.636 13.334 134.127 13.5112 134.639 13.8983C135.167 14.2842 135.462 14.9136 135.523 15.7865C135.583 16.6438 135.357 17.7873 134.847 19.2171C134.335 20.6312 133.599 22.0923 132.639 23.6005C131.678 25.093 130.603 26.5152 129.413 27.8671C128.238 29.2024 126.938 30.327 125.514 31.2411C124.105 32.1385 122.8 32.6291 121.6 32.7131C120.399 32.797 119.407 32.4905 118.622 31.7935C117.851 31.0799 117.419 30.0529 117.326 28.7124C117.231 27.3563 117.454 25.8371 117.994 24.1547C118.55 22.4712 119.306 20.9694 120.263 19.6495C121.219 18.3139 122.27 17.1048 123.416 16.0222C125.814 13.8027 127.972 12.6259 129.889 12.4918C130.746 12.4319 131.408 12.5971 131.874 12.9874C132.039 13.1168 132.126 13.236 132.134 13.3451L132.143 13.4854C132.359 13.439 132.701 13.3994 133.169 13.3667ZM131.025 16.6414L130.861 16.6529C130.316 16.691 130.015 16.3126 129.959 15.5177C128.848 15.9714 127.701 16.7094 126.52 17.7318C125.338 18.7542 124.301 19.9388 123.408 21.2856C121.592 23.9814 120.73 26.211 120.822 27.9745C120.883 28.8474 121.233 29.2615 121.872 29.2168C122.511 29.1721 123.432 28.6848 124.636 27.7548C125.84 26.8248 127.003 25.5374 128.125 23.8926C129.263 22.2467 130.096 20.8336 130.625 19.6533C131.167 18.4562 131.425 17.6551 131.396 17.2498C131.367 16.829 131.243 16.6262 131.025 16.6414ZM150.704 12.1405C151.172 12.1078 151.662 12.285 152.174 12.6721C152.703 13.058 152.997 13.6875 153.058 14.5603C153.118 15.4176 152.893 16.5611 152.382 17.9909C151.87 19.405 151.134 20.8662 150.174 22.3743C149.214 23.8668 148.138 25.289 146.949 26.6409C145.773 27.9762 144.474 29.1008 143.049 30.0149C141.64 30.9123 140.335 31.4029 139.135 31.4869C137.935 31.5708 136.942 31.2643 136.157 30.5673C135.387 29.8537 134.955 28.8267 134.861 27.4862C134.766 26.1301 134.989 24.6109 135.529 22.9285C136.085 21.245 136.841 19.7433 137.798 18.4233C138.754 17.0877 139.805 15.8786 140.952 14.7961C143.349 12.5765 145.507 11.3997 147.424 11.2656C148.281 11.2057 148.943 11.3709 149.409 11.7612C149.575 11.8906 149.661 12.0098 149.669 12.1189L149.679 12.2592C149.895 12.2128 150.236 12.1732 150.704 12.1405ZM148.56 15.4152L148.396 15.4267C147.851 15.4648 147.55 15.0864 147.495 14.2915C146.383 14.7452 145.236 15.4832 144.055 16.5056C142.873 17.528 141.836 18.7126 140.944 20.0594C139.127 22.7552 138.265 24.9848 138.357 26.7483C138.418 27.6212 138.768 28.0353 139.407 27.9906C140.046 27.9459 140.968 27.4586 142.171 26.5286C143.375 25.5986 144.538 24.3112 145.66 22.6664C146.798 21.0205 147.632 19.6074 148.16 18.4271C148.703 17.23 148.96 16.4289 148.932 16.0236C148.902 15.6028 148.778 15.4 148.56 15.4152Z" fill="#CF5C36"/>
</svg>
